<svg width="55" height="40" viewBox="0 0 55 40" fill="none" xmlns="http://www.w3.org/2000/svg">
<path fill-rule="evenodd" clip-rule="evenodd" d="M41.9256 24.3426C41.9385 25.5342 41.8994 26.7238 41.8081 27.9113C40.943 32.9136 38.1238 36.538 33.3507 38.7846C27.4543 41.0027 22.09 40.1848 17.2579 36.3312C15.5049 34.6572 14.252 32.6757 13.3816 30.4763C13.2148 30.0549 12.9912 29.6088 12.9117 29.2496C12.4153 27.0068 12.4545 24.7763 13.0292 22.5583C13.0974 22.3042 13.1709 22.0653 13.2641 21.7777C14.0477 19.3598 15.3986 17.278 17.3167 15.5325C18.4967 14.3562 19.7301 13.2409 21.0168 12.1868C22.3873 13.4136 23.7185 14.6774 25.0106 15.9786C23.5209 17.4114 22.0526 18.8612 20.6057 20.3279C19.8556 21.1574 19.2878 22.0868 18.9024 23.1159C18.8022 23.3836 18.7537 23.6133 18.6675 23.8966C18.5135 24.4024 18.4353 24.9229 18.4326 25.4579C18.2971 26.1068 18.4046 26.6891 18.5008 27.3784L18.55 27.5768C19.4091 31.0874 21.68 33.2992 25.363 34.2123C28.9795 34.7701 31.9749 33.7478 34.3491 31.1454C35.006 30.2978 35.6222 29.4489 35.9443 28.4379L35.9936 28.2459C36.1104 27.7309 36.1691 27.2104 36.1698 26.6846C36.3731 24.2714 35.6487 22.1525 33.9967 20.3279C29.6013 16.1919 25.2355 12.0099 20.8993 7.78176C17.8228 5.28747 14.4163 4.80422 10.6799 6.33199C6.80096 8.56487 5.25434 11.8176 6.04001 16.0901C6.81591 18.2037 8.10802 19.9881 9.91636 21.4431C9.84048 22.4078 9.74263 23.3743 9.6227 24.3426L9.57341 25.0365C9.57341 25.0365 9.36786 27.4846 9.2703 28.692C7.66909 27.1159 6.04415 25.5547 4.3955 24.0081C-0.353883 19.0416 -1.25445 13.5028 1.6938 7.39144C5.10828 1.98802 10.1397 -0.446862 16.7881 0.0868108C19.1805 0.484473 21.3732 1.33947 23.3661 2.6518C24.7495 3.68596 26.0807 4.78258 27.3599 5.94167C28.9676 4.35859 30.7295 2.96458 32.6459 1.75963C38.7985 -1.10426 44.5151 -0.4723 49.7958 3.65549C53.8153 7.41226 55.2836 11.9289 54.2007 17.2053C53.7008 18.8152 52.996 20.3393 52.0863 21.7777C49.87 24.3285 47.4816 26.7448 44.921 29.0265C45.0215 28.0296 45.0802 27.026 45.0972 26.0155C45.0086 24.4813 44.8715 22.9571 44.686 21.4431C46.1465 20.1556 47.3211 18.6687 48.21 16.9823C49.5852 12.7364 48.391 9.33503 44.6273 6.77807C39.3663 4.38841 35.0397 5.44786 31.6474 9.95643C31.5691 10.0679 31.5691 10.1795 31.6474 10.291C33.4812 11.9402 35.2823 13.613 37.0508 15.3094C37.968 16.2346 38.8295 17.2011 39.635 18.209C40.8487 20.1057 41.6122 22.1503 41.9256 24.3426Z" fill="#3DA466"/>
</svg>
