<svg width="50" height="50" viewBox="0 0 50 50" fill="none" xmlns="http://www.w3.org/2000/svg">
<circle cx="25" cy="25" r="25" fill="#3FA268"/>
<path d="M30.25 19.75C30.25 21.1424 29.6969 22.4777 28.7123 23.4623C27.7277 24.4469 26.3924 25 25 25C23.6076 25 22.2723 24.4469 21.2877 23.4623C20.3031 22.4777 19.75 21.1424 19.75 19.75C19.75 18.3576 20.3031 17.0223 21.2877 16.0377C22.2723 15.0531 23.6076 14.5 25 14.5C26.3924 14.5 27.7277 15.0531 28.7123 16.0377C29.6969 17.0223 30.25 18.3576 30.25 19.75ZM28.75 19.75C28.75 18.7554 28.3549 17.8016 27.6517 17.0983C26.9484 16.3951 25.9946 16 25 16C24.0054 16 23.0516 16.3951 22.3483 17.0983C21.6451 17.8016 21.25 18.7554 21.25 19.75C21.25 20.7446 21.6451 21.6984 22.3483 22.4017C23.0516 23.1049 24.0054 23.5 25 23.5C25.9946 23.5 26.9484 23.1049 27.6517 22.4017C28.3549 21.6984 28.75 20.7446 28.75 19.75ZM18.625 26.5C17.9288 26.5 17.2611 26.7766 16.7688 27.2688C16.2766 27.7611 16 28.4288 16 29.125V29.5C16 31.2948 17.1423 32.8127 18.7638 33.8447C20.3942 34.8827 22.6015 35.5 25 35.5C27.3985 35.5 29.605 34.8827 31.2362 33.8447C32.8577 32.8127 34 31.2948 34 29.5V29.125C34 28.4288 33.7234 27.7611 33.2312 27.2688C32.7389 26.7766 32.0712 26.5 31.375 26.5H18.625ZM17.5 29.125C17.5 28.8266 17.6185 28.5405 17.8295 28.3295C18.0405 28.1185 18.3266 28 18.625 28H31.375C31.6734 28 31.9595 28.1185 32.1705 28.3295C32.3815 28.5405 32.5 28.8266 32.5 29.125V29.5C32.5 30.6047 31.795 31.7118 30.4307 32.5795C29.0755 33.442 27.1578 34 25 34C22.8422 34 20.9245 33.442 19.5692 32.5795C18.2042 31.7125 17.5 30.604 17.5 29.5V29.125Z" fill="#FEFEFE"/>
</svg>
