<svg width="50" height="50" viewBox="0 0 50 50" fill="none" xmlns="http://www.w3.org/2000/svg">
<circle cx="25" cy="25" r="25" fill="#3FA268"/>
<path fill-rule="evenodd" clip-rule="evenodd" d="M34.455 18.416C34.55 18.5602 34.5924 18.7328 34.5749 18.9046C34.5574 19.0764 34.4811 19.2369 34.359 19.359L25.166 28.551C25.072 28.645 24.9546 28.7123 24.826 28.746L20.997 29.746C20.8704 29.779 20.7374 29.7784 20.6112 29.7441C20.485 29.7098 20.3699 29.6431 20.2774 29.5506C20.1849 29.4581 20.1182 29.3431 20.0839 29.2168C20.0497 29.0906 20.049 28.9576 20.082 28.831L21.082 25.003C21.1112 24.8881 21.1663 24.7814 21.243 24.691L30.47 15.47C30.6106 15.3296 30.8013 15.2507 31 15.2507C31.1988 15.2507 31.3894 15.3296 31.53 15.47L34.359 18.298C34.3949 18.334 34.4271 18.3736 34.455 18.416ZM32.768 18.828L31 17.061L22.482 25.579L21.857 27.972L24.25 27.347L32.768 18.828Z" fill="#FEFEFE"/>
<path d="M32.641 30.16C32.9143 27.824 33.0016 25.4699 32.902 23.12C32.8998 23.0646 32.9091 23.0094 32.9292 22.9578C32.9494 22.9062 32.9799 22.8593 33.019 22.82L34.003 21.836C34.0299 21.809 34.064 21.7903 34.1013 21.7822C34.1385 21.774 34.1773 21.7769 34.213 21.7903C34.2487 21.8037 34.2798 21.8271 34.3025 21.8578C34.3252 21.8884 34.3386 21.925 34.341 21.963C34.5262 24.7542 34.4559 27.5566 34.131 30.335C33.895 32.357 32.271 33.942 30.258 34.167C26.7633 34.554 23.2366 34.554 19.742 34.167C17.73 33.942 16.105 32.357 15.869 30.335C15.4544 26.7904 15.4544 23.2096 15.869 19.665C16.105 17.643 17.729 16.058 19.742 15.833C22.3944 15.5389 25.0667 15.4676 27.731 15.62C27.7691 15.6227 27.8057 15.6364 27.8363 15.6592C27.8669 15.6821 27.8904 15.7133 27.9038 15.749C27.9173 15.7848 27.9202 15.8237 27.9123 15.8611C27.9044 15.8985 27.8859 15.9328 27.859 15.96L26.866 16.952C26.8271 16.9908 26.7807 17.0211 26.7296 17.0413C26.6785 17.0614 26.6239 17.0708 26.569 17.069C24.3458 16.9934 22.12 17.0787 19.909 17.324C19.2629 17.3955 18.6598 17.6827 18.1971 18.1393C17.7345 18.5958 17.4392 19.195 17.359 19.84C16.958 23.2683 16.958 26.7317 17.359 30.16C17.4392 30.805 17.7345 31.4042 18.1971 31.8608C18.6598 32.3173 19.2629 32.6045 19.909 32.676C23.264 33.051 26.736 33.051 30.092 32.676C30.7381 32.6045 31.3411 32.3173 31.8038 31.8608C32.2665 31.4042 32.5608 30.805 32.641 30.16Z" fill="#FEFEFE"/>
</svg>
