<svg width="50" height="50" viewBox="0 0 50 50" fill="none" xmlns="http://www.w3.org/2000/svg">
<circle cx="25" cy="25" r="25" fill="#3FA268"/>
<path d="M16 24.098V29.091C16 32.187 16 33.736 16.734 34.412C17.084 34.735 17.526 34.938 17.997 34.992C18.984 35.105 20.137 34.085 22.442 32.046C23.462 31.145 23.971 30.694 24.56 30.576C24.85 30.516 25.15 30.516 25.44 30.576C26.03 30.694 26.539 31.145 27.558 32.046C29.863 34.085 31.016 35.105 32.003 34.991C32.473 34.938 32.916 34.735 33.266 34.412C34 33.736 34 32.188 34 29.091V24.097C34 19.809 34 17.665 32.682 16.332C31.364 15 29.242 15 25 15C20.757 15 18.636 15 17.318 16.332C16.511 17.148 16.198 18.27 16.077 20M28 19H22" stroke="#FEFEFE" stroke-width="1.5" stroke-linecap="round"/>
</svg>
