<svg width="50" height="50" viewBox="0 0 50 50" fill="none" xmlns="http://www.w3.org/2000/svg">
<circle cx="25" cy="25" r="25" fill="#3FA268"/>
<path d="M36.205 24.745C35.3229 22.4632 33.7915 20.49 31.8001 19.0691C29.8088 17.6482 27.4447 16.8419 25 16.75C22.5554 16.8419 20.1913 17.6482 18.1999 19.0691C16.2086 20.49 14.6772 22.4632 13.795 24.745C13.7355 24.9098 13.7355 25.0902 13.795 25.255C14.6772 27.5368 16.2086 29.51 18.1999 30.9309C20.1913 32.3518 22.5554 33.1581 25 33.25C27.4447 33.1581 29.8088 32.3518 31.8001 30.9309C33.7915 29.51 35.3229 27.5368 36.205 25.255C36.2646 25.0902 36.2646 24.9098 36.205 24.745ZM25 31.75C21.025 31.75 16.825 28.8025 15.3025 25C16.825 21.1975 21.025 18.25 25 18.25C28.975 18.25 33.175 21.1975 34.6975 25C33.175 28.8025 28.975 31.75 25 31.75Z" fill="#FEFEFE"/>
<path d="M25 20.5C24.11 20.5 23.24 20.7639 22.4999 21.2584C21.7599 21.7529 21.1831 22.4557 20.8425 23.2779C20.5019 24.1002 20.4128 25.005 20.5865 25.8779C20.7601 26.7508 21.1887 27.5526 21.818 28.182C22.4474 28.8113 23.2492 29.2399 24.1221 29.4135C24.995 29.5872 25.8998 29.4981 26.7221 29.1575C27.5443 28.8169 28.2471 28.2401 28.7416 27.5001C29.2361 26.76 29.5 25.89 29.5 25C29.5 23.8065 29.0259 22.6619 28.182 21.818C27.3381 20.9741 26.1935 20.5 25 20.5ZM25 28C24.4067 28 23.8266 27.8241 23.3333 27.4944C22.8399 27.1648 22.4554 26.6962 22.2284 26.148C22.0013 25.5999 21.9419 24.9967 22.0576 24.4147C22.1734 23.8328 22.4591 23.2982 22.8787 22.8787C23.2982 22.4591 23.8328 22.1734 24.4147 22.0576C24.9967 21.9419 25.5999 22.0013 26.1481 22.2284C26.6962 22.4554 27.1648 22.8399 27.4944 23.3333C27.8241 23.8266 28 24.4067 28 25C28 25.7956 27.6839 26.5587 27.1213 27.1213C26.5587 27.6839 25.7957 28 25 28Z" fill="#FEFEFE"/>
</svg>
